<svg width="16" height="16" viewBox="0 0 16 16" fill="none" xmlns="http://www.w3.org/2000/svg">
<g clip-path="url(#clip0_16779_129031)">
<path fill-rule="evenodd" clip-rule="evenodd" d="M10.5826 5.45301V5.45377C10.5946 5.46474 10.6068 5.47562 10.6189 5.48652C10.6489 5.51335 10.6789 5.54027 10.7074 5.56876C10.995 5.85393 11.2822 6.13969 11.5694 6.42538C11.6652 6.52071 11.761 6.61602 11.8568 6.71131C11.8208 6.75098 11.7853 6.79078 11.7492 6.83058C11.7132 6.87045 11.6771 6.91032 11.641 6.95005C11.6232 6.96615 11.6052 6.98214 11.5872 6.99814C11.4675 7.1047 11.3476 7.21135 11.2586 7.34762C11.2494 7.35373 11.2399 7.35944 11.2303 7.36515C11.2088 7.37801 11.1873 7.39086 11.1703 7.40822C10.5666 8.0119 9.96329 8.61658 9.36028 9.22092C9.20974 9.3718 9.05922 9.52265 8.90873 9.67346L8.42496 10.1651C8.41145 10.1772 8.39778 10.1892 8.38412 10.2012C8.35499 10.2266 8.32591 10.2521 8.29853 10.2795C7.85438 10.7234 7.41032 11.1674 6.96624 11.6115C6.30033 12.2773 5.63438 12.9432 4.96806 13.6089C4.93455 13.6424 4.89903 13.6741 4.86354 13.7058C4.84481 13.7225 4.82609 13.7393 4.80768 13.7562C4.55378 13.762 4.50937 13.7233 4.45974 13.4699C4.44137 13.3765 4.42128 13.2833 4.40119 13.1901C4.3693 13.0422 4.33742 12.8944 4.31242 12.7453C4.29779 12.6581 4.26697 12.6341 4.18495 12.6361C4.02555 12.6397 3.86615 12.6387 3.70676 12.6377C3.68017 12.6375 3.65358 12.6373 3.62699 12.6372C3.62062 12.6371 3.6142 12.6372 3.60777 12.6372C3.54257 12.6373 3.47588 12.6375 3.43213 12.5719L3.40548 12.5653C3.37152 12.4938 3.35951 12.419 3.36107 12.3402C3.36203 12.2832 3.36095 12.2261 3.35987 12.169C3.358 12.0706 3.35613 11.9722 3.36473 11.8747C3.37831 11.7263 3.31562 11.6809 3.17979 11.661C2.98781 11.6326 2.79766 11.591 2.60751 11.5494C2.5705 11.5413 2.53348 11.5332 2.49646 11.5252C2.27181 11.4766 2.23838 11.4296 2.24308 11.1955C2.44458 10.9696 2.66038 10.7575 2.87614 10.5455C3.01505 10.409 3.15394 10.2725 3.28898 10.1324C3.29979 10.121 3.31176 10.1105 3.32376 10.0999C3.35814 10.0696 3.39278 10.0391 3.4013 9.98872C3.60505 9.85027 3.76491 9.66586 3.9232 9.48092C3.93915 9.46695 3.95546 9.45328 3.97178 9.43961C4.00306 9.4134 4.03438 9.38716 4.06321 9.35867C5.00619 8.41674 5.94813 7.4748 6.89006 6.53182C6.89795 6.52393 6.90631 6.51637 6.91469 6.5088C6.9446 6.48175 6.97471 6.45452 6.9841 6.41166C7.14292 6.29412 7.28867 6.16299 7.39577 5.99424C7.44739 5.98327 7.47972 5.94732 7.51195 5.91147C7.52115 5.90125 7.53034 5.89103 7.53996 5.8814C7.92903 5.49477 8.31763 5.10768 8.70624 4.72058C8.90049 4.52709 9.09474 4.33359 9.28905 4.14015C9.50167 4.35069 9.7143 4.5611 9.92693 4.7715C10.1396 4.98191 10.3522 5.19232 10.5648 5.40286C10.5683 5.41332 10.572 5.42379 10.5756 5.43414C10.5779 5.44049 10.5804 5.44677 10.5826 5.45301Z" fill="#F15F5D"/>
<path d="M13.5953 2.38376C13.6803 2.29717 13.7653 2.21058 13.8505 2.12404L13.851 2.12456C13.6556 1.90358 13.4571 1.68625 13.21 1.52064C12.8343 1.26883 12.2158 1.26099 11.8846 1.5593C11.4698 1.93283 11.0779 2.33405 10.6997 2.74625C11.1156 3.16262 11.5319 3.579 11.9483 3.99537C12.0051 3.99247 12.0382 3.95535 12.0709 3.91874C12.0794 3.90922 12.0878 3.89973 12.0967 3.89089C12.3981 3.59101 12.6996 3.29062 12.9994 2.98865C13.1986 2.78764 13.397 2.58559 13.5953 2.38376Z" fill="#E5E5EA"/>
<path d="M14.0054 2.26869C13.9533 2.22093 13.9012 2.17301 13.8505 2.12404C13.7633 2.21268 13.6761 2.30163 13.5889 2.39042C13.3925 2.59052 13.1961 2.79068 12.9989 2.98934C12.699 3.2913 12.3981 3.5917 12.0961 3.89157C12.0873 3.90041 12.0788 3.9099 12.0703 3.91943C12.0377 3.95604 12.0045 3.99315 11.9478 3.99606C11.5319 3.57968 11.1155 3.16297 10.6991 2.7466C10.6225 2.77434 10.5713 2.83278 10.5207 2.89065C10.5036 2.91014 10.4866 2.92957 10.4687 2.94773C10.3314 3.08706 10.1918 3.22415 10.0523 3.36124C9.79308 3.61584 9.5339 3.87044 9.28906 4.13939C9.50161 4.34984 9.71416 4.56017 9.9267 4.7705C10.1394 4.98099 10.3521 5.19147 10.5648 5.40209C10.5676 5.41032 10.5708 5.41823 10.5737 5.42646C10.5767 5.43508 10.5797 5.44371 10.5825 5.45233C10.5972 5.46589 10.6121 5.47919 10.6269 5.49249C10.6544 5.51709 10.6818 5.54167 10.7079 5.56779C10.9954 5.85294 11.2826 6.13868 11.5698 6.42434L11.8573 6.71033C11.9247 6.64423 11.9924 6.57844 12.0601 6.51263C12.2114 6.36573 12.3627 6.21871 12.5103 6.06827C12.5927 5.98414 12.677 5.90183 12.7614 5.81952C12.9324 5.6526 13.1035 5.48567 13.2584 5.30356C13.3681 5.19526 13.4788 5.088 13.5895 4.98061C13.854 4.72384 14.1187 4.46697 14.3702 4.19771C14.7004 3.84455 14.7474 3.33048 14.5353 2.89583C14.4103 2.63987 14.2079 2.45431 14.0054 2.26869Z" fill="#E5E5EA"/>
<path d="M3.40527 12.5653C3.41415 12.5674 3.42356 12.5695 3.43244 12.5715C3.4805 12.6436 3.55573 12.6363 3.6273 12.6374C3.81329 12.6389 3.99927 12.641 4.18526 12.6363C4.26728 12.6342 4.2981 12.6583 4.31273 12.7455C4.35348 12.9884 4.41251 13.2282 4.46005 13.4701C4.50968 13.7235 4.55357 13.7622 4.80799 13.7564C4.70611 13.9016 4.57237 13.9878 4.39423 14.0239C3.97681 14.1085 3.562 14.2067 3.14615 14.2992C2.90897 14.0568 2.67126 13.8139 2.43408 13.5715C2.50095 13.4994 2.56626 13.4262 2.63417 13.3552C2.88859 13.0887 3.166 12.8453 3.4058 12.5653H3.40527Z" fill="#F9B280"/>
<path d="M3.4052 12.5652C3.16541 12.8452 2.88748 13.0892 2.63358 13.3551C2.56566 13.4262 2.50036 13.4993 2.43349 13.5714C2.42356 13.5698 2.41416 13.5688 2.40423 13.5677C2.1728 13.328 1.94188 13.0882 1.71045 12.8478C1.76583 12.4278 1.90166 12.025 1.9748 11.6092C2.00719 11.4248 2.10384 11.3004 2.24332 11.1944C2.23862 11.4284 2.27206 11.4754 2.4967 11.524C2.72343 11.5731 2.95017 11.6259 3.18003 11.6598C3.31639 11.6802 3.37856 11.7251 3.36497 11.8735C3.35087 12.0276 3.36393 12.1838 3.36132 12.339C3.35975 12.4184 3.37177 12.4931 3.40572 12.5642L3.4052 12.5652Z" fill="#FACBAC"/>
<path d="M2.40382 13.5676C2.41375 13.5686 2.42315 13.5697 2.43308 13.5712C2.67026 13.8136 2.90797 14.0561 3.14515 14.299C2.64205 14.4191 2.13948 14.5414 1.63534 14.6563C1.54705 14.6762 1.44674 14.6772 1.39502 14.5701C1.75027 14.2551 2.0794 13.9145 2.4033 13.5681L2.40382 13.5676Z" fill="black"/>
<path d="M2.40384 13.5675C2.07993 13.9138 1.7508 14.2545 1.39555 14.5695C1.32085 14.5131 1.32764 14.431 1.34435 14.3574C1.45511 13.8658 1.57057 13.3752 1.68498 12.8841C1.68811 12.8706 1.70169 12.8596 1.71005 12.8476C1.94149 13.0874 2.1724 13.3277 2.40384 13.5675Z" fill="#2B3242"/>
<path fill-rule="evenodd" clip-rule="evenodd" d="M5.3335 14.3333C5.3335 14.1492 5.39319 14 5.46683 14L14.5335 14C14.6071 14 14.6668 14.1492 14.6668 14.3333C14.6668 14.5174 14.6071 14.6667 14.5335 14.6667L5.46683 14.6667C5.39319 14.6667 5.3335 14.5174 5.3335 14.3333Z" fill="#2B3242"/>
</g>
<defs>
<clipPath id="clip0_16779_129031">
<rect width="13.3305" height="13.3333" fill="white" transform="translate(1.3335 1.33333)"/>
</clipPath>
</defs>
</svg>
